<svg width="213" height="32" viewBox="0 0 213 32" fill="none" xmlns="http://www.w3.org/2000/svg">
<path d="M18.0239 27.6586H17.5365C17.5365 27.6534 17.5341 27.6483 17.5331 27.6434L17.5197 27.5838C17.5112 27.5446 17.502 27.5057 17.4924 27.4671C17.4883 27.449 17.4839 27.4308 17.4794 27.4127C17.4668 27.3618 17.4534 27.3109 17.4398 27.2601L17.4357 27.2455C17.4206 27.1904 17.4049 27.1355 17.3885 27.0809L17.3721 27.0281C17.3608 26.9905 17.3488 26.9532 17.3379 26.9159C17.3314 26.8955 17.3246 26.8754 17.3181 26.8553C17.3061 26.8194 17.2938 26.7834 17.2812 26.7478C17.2747 26.729 17.2678 26.7098 17.2613 26.6914C17.2454 26.6467 17.229 26.6023 17.2121 26.5582C17.2084 26.5488 17.2053 26.5397 17.2015 26.5303C17.1817 26.4785 17.1609 26.427 17.1397 26.3754C17.1321 26.3566 17.1243 26.3382 17.1164 26.3197C17.1021 26.2873 17.0877 26.2517 17.073 26.218L17.0453 26.1554C17.031 26.123 17.0163 26.0906 17.0012 26.0582C16.992 26.0381 16.9824 26.0177 16.9729 25.9976C16.9554 25.9603 16.9387 25.9234 16.9192 25.8868C16.912 25.8728 16.9055 25.8586 16.8984 25.8443C16.8741 25.7961 16.8491 25.7471 16.8238 25.7005L16.7897 25.6399L16.7415 25.552L16.7039 25.4872C16.6882 25.46 16.6724 25.4328 16.6564 25.4056C16.6437 25.3835 16.6307 25.3615 16.6177 25.3408C16.6 25.3113 16.5836 25.2824 16.5641 25.2533L16.5149 25.1742C16.4916 25.1379 16.4684 25.1013 16.4445 25.0653C16.4294 25.0427 16.4144 25.0203 16.399 24.9979C16.3836 24.9756 16.3669 24.95 16.3505 24.9263C16.3341 24.9027 16.3163 24.879 16.3012 24.8557C16.2862 24.8324 16.2698 24.8113 16.2537 24.7909C16.2377 24.7705 16.2196 24.7432 16.2021 24.7196L16.1539 24.6548C16.1197 24.6117 16.0883 24.5686 16.0548 24.5252L16.008 24.4659C15.9882 24.4409 15.9676 24.4163 15.9475 24.3917L15.9024 24.3372C15.8815 24.3123 15.8603 24.2876 15.8391 24.2627L15.7947 24.2115L15.7284 24.1363L15.6891 24.0929C15.6074 24.0031 15.5237 23.9147 15.4379 23.8285L15.4003 23.7906L15.3217 23.7138L15.283 23.6768C15.2557 23.6506 15.2283 23.6247 15.2007 23.5991L15.1723 23.5731C15.0756 23.484 14.9761 23.3972 14.8749 23.3139L14.8472 23.2909C14.816 23.265 14.7846 23.2394 14.7529 23.2141L14.7215 23.1888C14.6873 23.1629 14.6562 23.1373 14.623 23.1117L14.6063 23.0991C14.4945 23.0135 14.38 22.9302 14.2645 22.8502L14.2484 22.8389C14.2118 22.8139 14.1753 22.7893 14.1384 22.765L14.1141 22.7491C14.0765 22.7241 14.0386 22.6998 14.0006 22.6755L13.9941 22.6717C13.8683 22.5919 13.7402 22.5156 13.6096 22.4426L13.6045 22.4393C13.5631 22.4163 13.5218 22.3939 13.4804 22.3716L13.4623 22.3619C13.2422 22.2441 13.0161 22.1361 12.7842 22.0378L12.7698 22.0317C12.7086 22.0058 12.6471 21.9808 12.5849 21.9562H13.8082C14.0075 21.9562 14.1691 21.7387 14.1691 21.4701C14.1691 21.2015 14.0075 20.9841 13.8082 20.9841H13.4438C13.4664 20.9296 13.4913 20.868 13.5183 20.7987C13.8629 20.5952 14.4692 20.1616 15.0708 19.3651L15.0756 19.359C15.1211 19.2994 15.1659 19.2377 15.2099 19.174L15.2188 19.1613C15.2625 19.0988 15.3063 19.0343 15.3493 18.9669L15.361 18.9491C15.3815 18.9167 15.402 18.8843 15.4225 18.8519C15.4225 18.8519 15.4225 18.8493 15.4249 18.8477C15.4461 18.8153 15.4669 18.7796 15.4878 18.7449L15.5011 18.7226C15.5189 18.6928 15.537 18.6623 15.5544 18.6315C15.5578 18.626 15.5613 18.6205 15.5643 18.6147C15.5845 18.5797 15.6047 18.544 15.6245 18.5081L15.6382 18.4831C15.6546 18.4533 15.6706 18.4232 15.6867 18.3927C15.6915 18.3843 15.6963 18.3755 15.7007 18.3668C15.7198 18.3302 15.739 18.2932 15.7581 18.2556L15.7715 18.2294C15.7865 18.1989 15.8019 18.1678 15.8169 18.1367L15.8333 18.1043C15.8518 18.0661 15.8699 18.0272 15.888 17.988L15.8993 17.963C15.9143 17.9306 15.929 17.8982 15.9437 17.8658L15.9612 17.8269C15.9782 17.7877 15.9953 17.7482 16.0117 17.7083C16.0148 17.7012 16.0179 17.6937 16.0206 17.6866C16.036 17.65 16.0511 17.6127 16.0661 17.5751L16.0832 17.5324C16.0972 17.4967 16.1112 17.4608 16.1249 17.4248L16.1351 17.3976C16.1512 17.3548 16.1669 17.3111 16.1826 17.268L16.199 17.2219C16.2114 17.1876 16.2233 17.1526 16.2353 17.1176C16.2397 17.1046 16.2442 17.0917 16.2483 17.0787C16.2633 17.034 16.2783 16.9883 16.293 16.9426C16.2978 16.9267 16.3029 16.9102 16.3077 16.8953L16.3419 16.7887C16.3464 16.7732 16.3511 16.7563 16.3556 16.7424C16.3696 16.6954 16.3836 16.6474 16.3969 16.5991C16.4014 16.5839 16.4055 16.5684 16.4096 16.5528C16.4198 16.5155 16.4301 16.4783 16.44 16.4404C16.4445 16.4232 16.4489 16.406 16.4537 16.3888C16.4663 16.3389 16.479 16.2887 16.4913 16.2378L16.5015 16.1954C16.5111 16.1549 16.5207 16.114 16.5299 16.0729L16.5422 16.0178C16.5538 15.965 16.5654 15.9122 16.5764 15.8584C16.5788 15.848 16.5808 15.8373 16.5829 15.826C16.5925 15.7796 16.6017 15.7327 16.6106 15.6857C16.6143 15.6666 16.6177 15.6474 16.6215 15.6283C16.6304 15.58 16.6389 15.5311 16.6475 15.4828C16.6492 15.4725 16.6512 15.4624 16.6529 15.4524C16.6625 15.3953 16.6719 15.3379 16.681 15.28C16.6841 15.2605 16.6871 15.2411 16.6899 15.2213C16.697 15.1743 16.7039 15.127 16.7107 15.0791L16.7169 15.035C16.7251 14.9754 16.7329 14.9154 16.7404 14.8545C16.7428 14.8354 16.7449 14.8163 16.7473 14.7968C16.7532 14.7484 16.7587 14.6998 16.7637 14.651C16.7657 14.6335 16.7678 14.6163 16.7695 14.5988C16.7761 14.5362 16.7823 14.473 16.788 14.4093C16.788 14.3915 16.791 14.3736 16.7924 14.3555C16.7968 14.3043 16.8013 14.2528 16.805 14.2009C16.805 14.1818 16.8081 14.1627 16.8095 14.1436C16.8143 14.0775 16.8187 14.0109 16.8228 13.944C16.8228 13.9287 16.8228 13.9115 16.8252 13.8979C16.8283 13.8422 16.8314 13.7861 16.8338 13.7298C16.8338 13.7093 16.8338 13.6889 16.8365 13.6685C16.8392 13.5989 16.842 13.5289 16.844 13.4579C16.844 13.4482 16.844 13.4381 16.844 13.4281C16.8458 13.365 16.8472 13.3013 16.8481 13.2369C16.8481 13.2158 16.8481 13.1948 16.8481 13.1737C16.8481 13.1046 16.8481 13.035 16.8481 12.965V12.9488C16.8481 12.8743 16.8481 12.7988 16.8481 12.722V12.6572C16.8481 12.5924 16.8454 12.5243 16.8437 12.4569V12.4203C16.8413 12.3425 16.8382 12.2638 16.8351 12.1847C16.8351 12.1643 16.8331 12.1436 16.8324 12.1232C16.8294 12.0566 16.826 11.9897 16.8221 11.9223C16.8221 11.9057 16.8221 11.8899 16.8194 11.872C16.8146 11.791 16.8094 11.7094 16.8037 11.6271L16.7996 11.5697C16.7945 11.501 16.7893 11.432 16.7835 11.3623C16.7835 11.3422 16.7804 11.3221 16.7787 11.3021C16.7716 11.2178 16.7637 11.1326 16.7555 11.047C16.7555 11.0308 16.7521 11.0146 16.7507 10.9981C16.7435 10.9252 16.7357 10.8516 16.7278 10.7774C16.7254 10.7551 16.723 10.733 16.7203 10.7107C16.7107 10.6225 16.7005 10.5341 16.6895 10.4443C16.6895 10.4333 16.6864 10.4223 16.6851 10.4119C16.6753 10.3316 16.6649 10.2508 16.654 10.1695C16.6506 10.1456 16.6475 10.1216 16.6441 10.0976C16.6313 10.0056 16.6182 9.91278 16.6048 9.81924C15.2376 0.592523 5.54905 2.08991 5.54905 2.08991L5.8594 4.07239L0 9.94076L0.256004 12.2068L2.47563 13.5029C2.57457 13.2645 2.70161 13.0374 2.85433 12.826C4.28645 11.2599 7.06491 10.0305 7.86026 9.7755C8.01954 9.72463 8.11012 9.69903 8.11012 9.69903C4.3056 14.3672 4.73831 19.7151 4.90784 20.9899C4.73147 21.0223 4.5951 21.2242 4.5951 21.4704C4.5951 21.7387 4.75676 21.9565 4.95603 21.9565H6.17932C4.14483 22.7639 2.5299 24.3015 1.6871 26.2338C1.68611 26.2365 1.68497 26.2391 1.68368 26.2416C1.62148 26.385 1.5636 26.5305 1.51005 26.6781C1.51015 26.6796 1.51015 26.6811 1.51005 26.6826C1.4957 26.7228 1.48169 26.763 1.46801 26.8035C1.46289 26.8181 1.45776 26.8327 1.45297 26.8476C1.44067 26.8839 1.42927 26.9205 1.41879 26.9574C1.41264 26.9762 1.40683 26.9953 1.40102 27.0141C1.39008 27.0488 1.37949 27.0838 1.36923 27.1188L1.35078 27.1836C1.34121 27.216 1.33164 27.2507 1.32275 27.2844C1.31626 27.3083 1.3101 27.332 1.30395 27.356C1.29575 27.3884 1.2872 27.4208 1.27934 27.4532C1.27148 27.4856 1.26396 27.518 1.25644 27.5523C1.24892 27.5867 1.23935 27.6269 1.23115 27.6645H0.743405C0.649613 27.6625 0.556355 27.6783 0.469101 27.711C0.381846 27.7437 0.302356 27.7925 0.235293 27.8547C0.16823 27.9169 0.114942 27.9912 0.0785645 28.0732C0.0421866 28.1552 0.0234484 28.2432 0.0234484 28.3322C0.0234484 28.4211 0.0421866 28.5091 0.0785645 28.5911C0.114942 28.6731 0.16823 28.7474 0.235293 28.8096C0.302356 28.8718 0.381846 28.9206 0.469101 28.9533C0.556355 28.986 0.649613 29.0018 0.743405 28.9998H18.03C18.1238 29.0018 18.2171 28.986 18.3043 28.9533C18.3916 28.9206 18.4711 28.8718 18.5382 28.8096C18.6052 28.7474 18.6585 28.6731 18.6949 28.5911C18.7313 28.5091 18.75 28.4211 18.75 28.3322C18.75 28.2432 18.7313 28.1552 18.6949 28.0732C18.6585 27.9912 18.6052 27.9169 18.5382 27.8547C18.4711 27.7925 18.3916 27.7437 18.3043 27.711C18.2171 27.6783 18.1238 27.6625 18.03 27.6645L18.0239 27.6586Z" fill="#595653"/>
<path d="M38.2738 27.6586H37.7864C37.7864 27.6534 37.784 27.6483 37.7829 27.6434L37.7696 27.5838C37.7611 27.5446 37.7518 27.5057 37.7423 27.4671C37.7382 27.449 37.7337 27.4308 37.7293 27.4127C37.7166 27.3618 37.7033 27.3109 37.6896 27.2601L37.6855 27.2455C37.6705 27.1904 37.6548 27.1355 37.6384 27.0809L37.622 27.0281C37.6107 26.9905 37.5987 26.9532 37.5878 26.9159C37.5813 26.8955 37.5745 26.8754 37.568 26.8553C37.556 26.8194 37.5437 26.7834 37.531 26.7478C37.5246 26.729 37.5177 26.7098 37.5112 26.6914C37.4953 26.6467 37.4789 26.6023 37.462 26.5582C37.4582 26.5488 37.4552 26.5397 37.4514 26.5303C37.4316 26.4785 37.4107 26.427 37.3895 26.3754C37.382 26.3566 37.3742 26.3382 37.3663 26.3197C37.3519 26.2873 37.3376 26.2517 37.3229 26.218L37.2952 26.1554C37.2809 26.123 37.2662 26.0906 37.2511 26.0582C37.2419 26.0381 37.2323 26.0177 37.2227 25.9976C37.2053 25.9603 37.1886 25.9234 37.1691 25.8868C37.1619 25.8728 37.1554 25.8586 37.1482 25.8443C37.124 25.7961 37.099 25.7471 37.0737 25.7005L37.0395 25.6399L36.9914 25.552L36.9538 25.4872C36.938 25.46 36.9223 25.4328 36.9062 25.4056C36.8936 25.3835 36.8806 25.3615 36.8676 25.3408C36.8499 25.3113 36.8334 25.2824 36.814 25.2533L36.7647 25.1742C36.7415 25.1379 36.7183 25.1013 36.6943 25.0653C36.6793 25.0427 36.6643 25.0203 36.6489 24.9979C36.6335 24.9756 36.6167 24.95 36.6003 24.9263C36.5839 24.9027 36.5662 24.879 36.5511 24.8557C36.5361 24.8324 36.5197 24.8113 36.5036 24.7909C36.4875 24.7705 36.4694 24.7432 36.452 24.7196L36.4038 24.6548C36.3696 24.6117 36.3382 24.5686 36.3047 24.5252L36.2579 24.4659C36.238 24.4409 36.2175 24.4163 36.1974 24.3917L36.1522 24.3372C36.1314 24.3123 36.1102 24.2876 36.089 24.2627L36.0446 24.2115L35.9783 24.1363L35.939 24.0929C35.8573 24.0031 35.7735 23.9147 35.6877 23.8285L35.6502 23.7906L35.5715 23.7138L35.5329 23.6768C35.5056 23.6506 35.4782 23.6247 35.4505 23.5991L35.4222 23.5731C35.3254 23.484 35.226 23.3972 35.1248 23.3139L35.0971 23.2909C35.0659 23.265 35.0345 23.2394 35.0028 23.2141L34.9713 23.1888C34.9372 23.1629 34.9061 23.1373 34.8729 23.1117L34.8562 23.0991C34.7444 23.0135 34.6299 22.9302 34.5144 22.8502L34.4983 22.8389C34.4617 22.8139 34.4252 22.7893 34.3882 22.765L34.364 22.7491C34.3264 22.7241 34.2884 22.6998 34.2505 22.6755L34.244 22.6717C34.1182 22.5919 33.99 22.5156 33.8595 22.4426L33.8544 22.4393C33.813 22.4163 33.7716 22.3939 33.7303 22.3716L33.7122 22.3619C33.4921 22.2441 33.266 22.1361 33.034 22.0378L33.0197 22.0317C32.9585 22.0058 32.897 21.9808 32.8348 21.9562H34.0581C34.2573 21.9562 34.419 21.7387 34.419 21.4701C34.419 21.2015 34.2573 20.9841 34.0581 20.9841H33.6937C33.7163 20.9296 33.7412 20.868 33.7682 20.7987C34.1128 20.5952 34.7191 20.1616 35.3207 19.3651L35.3254 19.359C35.371 19.2994 35.4158 19.2377 35.4598 19.174L35.4687 19.1613C35.5124 19.0988 35.5562 19.0343 35.5992 18.9669L35.6108 18.9491C35.6314 18.9167 35.6519 18.8843 35.6724 18.8519C35.6724 18.8519 35.6724 18.8493 35.6748 18.8477C35.6959 18.8153 35.7168 18.7796 35.7376 18.7449L35.751 18.7226C35.7688 18.6928 35.7869 18.6623 35.8043 18.6315C35.8077 18.626 35.8111 18.6205 35.8142 18.6147C35.8344 18.5797 35.8545 18.544 35.8744 18.5081L35.888 18.4831C35.9044 18.4533 35.9205 18.4232 35.9366 18.3927C35.9414 18.3843 35.9461 18.3755 35.9506 18.3668C35.9697 18.3302 35.9889 18.2932 36.008 18.2556L36.0213 18.2294C36.0364 18.1989 36.0518 18.1678 36.0668 18.1367L36.0832 18.1043C36.1017 18.0661 36.1198 18.0272 36.1379 17.988L36.1492 17.963C36.1642 17.9306 36.1789 17.8982 36.1936 17.8658L36.211 17.8269C36.2281 17.7877 36.2452 17.7482 36.2616 17.7083C36.2647 17.7012 36.2678 17.6937 36.2705 17.6866C36.2859 17.65 36.3009 17.6127 36.316 17.5751L36.3331 17.5324C36.3471 17.4967 36.3611 17.4608 36.3748 17.4248L36.385 17.3976C36.4011 17.3548 36.4168 17.3111 36.4325 17.268L36.4489 17.2219C36.4612 17.1876 36.4732 17.1526 36.4852 17.1176C36.4896 17.1046 36.494 17.0917 36.4981 17.0787C36.5132 17.034 36.5282 16.9883 36.5429 16.9426C36.5477 16.9267 36.5528 16.9102 36.5576 16.8953L36.5918 16.7887C36.5962 16.7732 36.601 16.7563 36.6055 16.7424C36.6195 16.6954 36.6335 16.6474 36.6468 16.5991C36.6513 16.5839 36.6554 16.5684 36.6595 16.5528C36.6697 16.5155 36.68 16.4783 36.6899 16.4404C36.6943 16.4232 36.6988 16.406 36.7036 16.3888C36.7162 16.3389 36.7289 16.2887 36.7412 16.2378L36.7514 16.1954C36.761 16.1549 36.7706 16.114 36.7798 16.0729L36.7921 16.0178C36.8037 15.965 36.8153 15.9122 36.8263 15.8584C36.8287 15.848 36.8307 15.8373 36.8328 15.826C36.8423 15.7796 36.8516 15.7327 36.8604 15.6857C36.8642 15.6666 36.8676 15.6474 36.8714 15.6283C36.8803 15.58 36.8888 15.5311 36.8974 15.4828C36.8991 15.4725 36.9011 15.4624 36.9028 15.4524C36.9124 15.3953 36.9217 15.3379 36.9309 15.28C36.9339 15.2605 36.937 15.2411 36.9397 15.2213C36.9469 15.1743 36.9538 15.127 36.9606 15.0791L36.9667 15.035C36.9749 14.9754 36.9828 14.9154 36.9903 14.8545C36.9927 14.8354 36.9948 14.8163 36.9972 14.7968C37.0031 14.7484 37.0086 14.6998 37.0136 14.651C37.0156 14.6335 37.0177 14.6163 37.0194 14.5988C37.026 14.5362 37.0321 14.473 37.0378 14.4093C37.0378 14.3915 37.0409 14.3736 37.0423 14.3555C37.0467 14.3043 37.0512 14.2528 37.0549 14.2009C37.0549 14.1818 37.058 14.1627 37.0594 14.1436C37.0642 14.0775 37.0686 14.0109 37.0727 13.944C37.0727 13.9287 37.0727 13.9115 37.0751 13.8979C37.0782 13.8422 37.0812 13.7861 37.0836 13.7298C37.0836 13.7093 37.0836 13.6889 37.0864 13.6685C37.0891 13.5989 37.0918 13.5289 37.0939 13.4579C37.0939 13.4482 37.0939 13.4381 37.0939 13.4281C37.0957 13.365 37.0971 13.3013 37.098 13.2369C37.098 13.2158 37.098 13.1948 37.098 13.1737C37.098 13.1046 37.098 13.035 37.098 12.965V12.9488C37.098 12.8743 37.098 12.7988 37.098 12.722V12.6572C37.098 12.5924 37.0953 12.5243 37.0935 12.4569V12.4203C37.0912 12.3425 37.0881 12.2638 37.085 12.1847C37.085 12.1643 37.083 12.1436 37.0823 12.1232C37.0793 12.0566 37.0759 11.9897 37.072 11.9223C37.072 11.9057 37.072 11.8899 37.0693 11.872C37.0645 11.791 37.0593 11.7094 37.0536 11.6271L37.0495 11.5697C37.0443 11.501 37.0392 11.432 37.0334 11.3623C37.0334 11.3422 37.0303 11.3221 37.0286 11.3021C37.0214 11.2178 37.0136 11.1326 37.0054 11.047C37.0054 11.0308 37.0019 11.0146 37.0006 10.9981C36.9934 10.9252 36.9855 10.8516 36.9777 10.7774C36.9753 10.7551 36.9729 10.733 36.9702 10.7107C36.9606 10.6225 36.9503 10.5341 36.9394 10.4443C36.9394 10.4333 36.9363 10.4223 36.935 10.4119C36.9252 10.3316 36.9148 10.2508 36.9039 10.1695C36.9004 10.1456 36.8974 10.1216 36.8939 10.0976C36.8812 10.0056 36.8681 9.91278 36.8546 9.81924C35.4875 0.592523 25.7989 2.08991 25.7989 2.08991L26.1093 4.07239L20.2499 9.94076L20.5059 12.2068L22.7255 13.5029C22.8245 13.2645 22.9515 13.0374 23.1042 12.826C24.5363 11.2599 27.3148 10.0305 28.1101 9.7755C28.2694 9.72463 28.36 9.69903 28.36 9.69903C24.5555 14.3672 24.9882 19.7151 25.1577 20.9899C24.9813 21.0223 24.845 21.2242 24.845 21.4704C24.845 21.7387 25.0066 21.9565 25.2059 21.9565H26.4292C24.3947 22.7639 22.7798 24.3015 21.937 26.2338C21.936 26.2365 21.9348 26.2391 21.9336 26.2416C21.8714 26.385 21.8135 26.5305 21.7599 26.6781C21.76 26.6796 21.76 26.6811 21.7599 26.6826C21.7456 26.7228 21.7316 26.763 21.7179 26.8035C21.7128 26.8181 21.7076 26.8327 21.7028 26.8476C21.6905 26.8839 21.6792 26.9205 21.6687 26.9574C21.6625 26.9762 21.6567 26.9953 21.6509 27.0141C21.64 27.0488 21.6294 27.0838 21.6191 27.1188L21.6007 27.1836C21.5911 27.216 21.5815 27.2507 21.5726 27.2844C21.5661 27.3083 21.56 27.332 21.5538 27.356C21.5456 27.3884 21.5371 27.4208 21.5292 27.4532C21.5214 27.4856 21.5138 27.518 21.5063 27.5523C21.4988 27.5867 21.4892 27.6269 21.481 27.6645H20.9933C20.8995 27.6625 20.8062 27.6783 20.719 27.711C20.6317 27.7437 20.5522 27.7925 20.4852 27.8547C20.4181 27.9169 20.3648 27.9912 20.3284 28.0732C20.2921 28.1552 20.2733 28.2432 20.2733 28.3322C20.2733 28.4211 20.2921 28.5091 20.3284 28.5911C20.3648 28.6731 20.4181 28.7474 20.4852 28.8096C20.5522 28.8718 20.6317 28.9206 20.719 28.9533C20.8062 28.986 20.8995 29.0018 20.9933 28.9998H38.2799C38.3737 29.0018 38.467 28.986 38.5542 28.9533C38.6415 28.9206 38.721 28.8718 38.788 28.8096C38.8551 28.7474 38.9084 28.6731 38.9448 28.5911C38.9811 28.5091 38.9999 28.4211 38.9999 28.3322C38.9999 28.2432 38.9811 28.1552 38.9448 28.0732C38.9084 27.9912 38.8551 27.9169 38.788 27.8547C38.721 27.7925 38.6415 27.7437 38.5542 27.711C38.467 27.6783 38.3737 27.6625 38.2799 27.6645L38.2738 27.6586Z" fill="#595653"/>
<path d="M58.5241 27.6586H58.0367C58.0367 27.6534 58.0343 27.6483 58.0333 27.6434L58.02 27.5838C58.0114 27.5446 58.0022 27.5057 57.9926 27.4671C57.9885 27.449 57.9841 27.4308 57.9797 27.4127C57.967 27.3618 57.9537 27.3109 57.94 27.2601L57.9359 27.2455C57.9209 27.1904 57.9051 27.1355 57.8887 27.0809L57.8723 27.0281C57.8611 26.9905 57.8491 26.9532 57.8382 26.9159C57.8317 26.8955 57.8248 26.8754 57.8183 26.8553C57.8064 26.8194 57.7941 26.7834 57.7814 26.7478C57.7749 26.729 57.7681 26.7098 57.7616 26.6914C57.7456 26.6467 57.7292 26.6023 57.7124 26.5582C57.7086 26.5488 57.7055 26.5397 57.7018 26.5303C57.682 26.4785 57.6611 26.427 57.6399 26.3754C57.6324 26.3566 57.6245 26.3382 57.6167 26.3197C57.6023 26.2873 57.588 26.2517 57.5733 26.218L57.5456 26.1554C57.5312 26.123 57.5165 26.0906 57.5015 26.0582C57.4923 26.0381 57.4827 26.0177 57.4731 25.9976C57.4557 25.9603 57.4389 25.9234 57.4195 25.8868C57.4123 25.8728 57.4058 25.8586 57.3986 25.8443C57.3743 25.7961 57.3494 25.7471 57.3241 25.7005L57.2899 25.6399L57.2417 25.552L57.2041 25.4872C57.1884 25.46 57.1727 25.4328 57.1566 25.4056C57.144 25.3835 57.131 25.3615 57.118 25.3408C57.1002 25.3113 57.0838 25.2824 57.0643 25.2533L57.0151 25.1742C56.9919 25.1379 56.9686 25.1013 56.9447 25.0653C56.9297 25.0427 56.9146 25.0203 56.8992 24.9979C56.8839 24.9756 56.8671 24.95 56.8507 24.9263C56.8343 24.9027 56.8165 24.879 56.8015 24.8557C56.7864 24.8324 56.77 24.8113 56.754 24.7909C56.7379 24.7705 56.7198 24.7432 56.7024 24.7196L56.6542 24.6548C56.62 24.6117 56.5885 24.5686 56.555 24.5252L56.5082 24.4659C56.4884 24.4409 56.4679 24.4163 56.4477 24.3917L56.4026 24.3372C56.3818 24.3123 56.3606 24.2876 56.3394 24.2627L56.2949 24.2115L56.2286 24.1363L56.1893 24.0929C56.1076 24.0031 56.0239 23.9147 55.9381 23.8285L55.9005 23.7906L55.8219 23.7138L55.7833 23.6768C55.7559 23.6506 55.7286 23.6247 55.7009 23.5991L55.6725 23.5731C55.5758 23.484 55.4763 23.3972 55.3752 23.3139L55.3475 23.2909C55.3163 23.265 55.2848 23.2394 55.2532 23.2141L55.2217 23.1888C55.1875 23.1629 55.1564 23.1373 55.1233 23.1117L55.1065 23.0991C54.9948 23.0135 54.8803 22.9302 54.7647 22.8502L54.7487 22.8389C54.7121 22.8139 54.6755 22.7893 54.6386 22.765L54.6143 22.7491C54.5767 22.7241 54.5388 22.6998 54.5009 22.6755L54.4944 22.6717C54.3686 22.5919 54.2404 22.5156 54.1098 22.4426L54.1047 22.4393C54.0634 22.4163 54.022 22.3939 53.9807 22.3716L53.9625 22.3619C53.7424 22.2441 53.5164 22.1361 53.2844 22.0378L53.2701 22.0317C53.2089 22.0058 53.1474 21.9808 53.0851 21.9562H54.3084C54.5077 21.9562 54.6694 21.7387 54.6694 21.4701C54.6694 21.2015 54.5077 20.9841 54.3084 20.9841H53.9441C53.9666 20.9296 53.9916 20.868 54.0186 20.7987C54.3631 20.5952 54.9695 20.1616 55.571 19.3651L55.5758 19.359C55.6214 19.2994 55.6662 19.2377 55.7101 19.174L55.719 19.1613C55.7628 19.0988 55.8065 19.0343 55.8496 18.9669L55.8612 18.9491C55.8817 18.9167 55.9022 18.8843 55.9227 18.8519C55.9227 18.8519 55.9227 18.8493 55.9251 18.8477C55.9463 18.8153 55.9672 18.7796 55.988 18.7449L56.0013 18.7226C56.0191 18.6928 56.0372 18.6623 56.0547 18.6315C56.0581 18.626 56.0615 18.6205 56.0646 18.6147C56.0847 18.5797 56.1049 18.544 56.1247 18.5081L56.1384 18.4831C56.1548 18.4533 56.1709 18.4232 56.1869 18.3927C56.1917 18.3843 56.1965 18.3755 56.201 18.3668C56.2201 18.3302 56.2392 18.2932 56.2584 18.2556L56.2717 18.2294C56.2867 18.1989 56.3021 18.1678 56.3172 18.1367L56.3336 18.1043C56.352 18.0661 56.3701 18.0272 56.3883 17.988L56.3995 17.963C56.4146 17.9306 56.4293 17.8982 56.444 17.8658L56.4614 17.8269C56.4785 17.7877 56.4956 17.7482 56.512 17.7083C56.5151 17.7012 56.5181 17.6937 56.5209 17.6866C56.5363 17.65 56.5513 17.6127 56.5663 17.5751L56.5834 17.5324C56.5974 17.4967 56.6114 17.4608 56.6251 17.4248L56.6354 17.3976C56.6514 17.3548 56.6672 17.3111 56.6829 17.268L56.6993 17.2219C56.7116 17.1876 56.7236 17.1526 56.7355 17.1176C56.74 17.1046 56.7444 17.0917 56.7485 17.0787C56.7635 17.034 56.7786 16.9883 56.7933 16.9426C56.7981 16.9267 56.8032 16.9102 56.808 16.8953L56.8422 16.7887C56.8466 16.7732 56.8514 16.7563 56.8558 16.7424C56.8698 16.6954 56.8839 16.6474 56.8972 16.5991C56.9016 16.5839 56.9057 16.5684 56.9098 16.5528C56.9201 16.5155 56.9303 16.4783 56.9403 16.4404C56.9447 16.4232 56.9491 16.406 56.9539 16.3888C56.9666 16.3389 56.9792 16.2887 56.9915 16.2378L57.0018 16.1954C57.0114 16.1549 57.0209 16.114 57.0301 16.0729L57.0425 16.0178C57.0541 15.965 57.0657 15.9122 57.0766 15.8584C57.079 15.848 57.0811 15.8373 57.0831 15.826C57.0927 15.7796 57.1019 15.7327 57.1108 15.6857C57.1146 15.6666 57.118 15.6474 57.1217 15.6283C57.1306 15.58 57.1392 15.5311 57.1477 15.4828C57.1494 15.4725 57.1515 15.4624 57.1532 15.4524C57.1628 15.3953 57.1721 15.3379 57.1812 15.28C57.1843 15.2605 57.1874 15.2411 57.1901 15.2213C57.1973 15.1743 57.2041 15.127 57.211 15.0791L57.2171 15.035C57.2253 14.9754 57.2332 14.9154 57.2407 14.8545C57.2431 14.8354 57.2451 14.8163 57.2475 14.7968C57.2535 14.7484 57.2589 14.6998 57.2639 14.651C57.266 14.6335 57.268 14.6163 57.2697 14.5988C57.2764 14.5362 57.2825 14.473 57.2882 14.4093C57.2882 14.3915 57.2913 14.3736 57.2926 14.3555C57.2971 14.3043 57.3015 14.2528 57.3053 14.2009C57.3053 14.1818 57.3084 14.1627 57.3097 14.1436C57.3145 14.0775 57.319 14.0109 57.3231 13.944C57.3231 13.9287 57.3231 13.9115 57.3255 13.8979C57.3285 13.8422 57.3316 13.7861 57.334 13.7298C57.334 13.7093 57.334 13.6889 57.3367 13.6685C57.3395 13.5989 57.3422 13.5289 57.3443 13.4579C57.3443 13.4482 57.3443 13.4381 57.3443 13.4281C57.3461 13.365 57.3474 13.3013 57.3484 13.2369C57.3484 13.2158 57.3484 13.1948 57.3484 13.1737C57.3484 13.1046 57.3484 13.035 57.3484 12.965V12.9488C57.3484 12.8743 57.3484 12.7988 57.3484 12.722V12.6572C57.3484 12.5924 57.3456 12.5243 57.3439 12.4569V12.4203C57.3415 12.3425 57.3384 12.2638 57.3354 12.1847C57.3354 12.1643 57.3333 12.1436 57.3326 12.1232C57.3297 12.0566 57.3263 11.9897 57.3224 11.9223C57.3224 11.9057 57.3224 11.8899 57.3196 11.872C57.3149 11.791 57.3096 11.7094 57.3039 11.6271L57.2998 11.5697C57.2947 11.501 57.2896 11.432 57.2838 11.3623C57.2838 11.3422 57.2807 11.3221 57.279 11.3021C57.2718 11.2178 57.2639 11.1326 57.2557 11.047C57.2557 11.0308 57.2523 11.0146 57.2509 10.9981C57.2438 10.9252 57.2359 10.8516 57.228 10.7774C57.2257 10.7551 57.2233 10.733 57.2205 10.7107C57.211 10.6225 57.2007 10.5341 57.1898 10.4443C57.1898 10.4333 57.1867 10.4223 57.1853 10.4119C57.1755 10.3316 57.1652 10.2508 57.1542 10.1695C57.1508 10.1456 57.1477 10.1216 57.1443 10.0976C57.1315 10.0056 57.1184 9.91278 57.105 9.81924C55.7378 0.592523 46.0493 2.08991 46.0493 2.08991L46.3596 4.07239L40.5002 9.94076L40.7562 12.2068L42.9759 13.5029C43.0748 13.2645 43.2019 13.0374 43.3546 12.826C44.7867 11.2599 47.5652 10.0305 48.3605 9.7755C48.5198 9.72463 48.6104 9.69903 48.6104 9.69903C44.8058 14.3672 45.2386 19.7151 45.4081 20.9899C45.2317 21.0223 45.0953 21.2242 45.0953 21.4704C45.0953 21.7387 45.257 21.9565 45.4563 21.9565H46.6796C44.6451 22.7639 43.0301 24.3015 42.1873 26.2338C42.1864 26.2365 42.1852 26.2391 42.1839 26.2416C42.1217 26.385 42.0638 26.5305 42.0103 26.6781C42.0104 26.6796 42.0104 26.6811 42.0103 26.6826C41.9959 26.7228 41.9819 26.763 41.9683 26.8035C41.9631 26.8181 41.958 26.8327 41.9532 26.8476C41.9409 26.8839 41.9295 26.9205 41.919 26.9574C41.9129 26.9762 41.9071 26.9953 41.9013 27.0141C41.8903 27.0488 41.8797 27.0838 41.8695 27.1188L41.851 27.1836C41.8414 27.216 41.8319 27.2507 41.823 27.2844C41.8165 27.3083 41.8103 27.332 41.8042 27.356C41.796 27.3884 41.7874 27.4208 41.7796 27.4532C41.7717 27.4856 41.7642 27.518 41.7567 27.5523C41.7492 27.5867 41.7396 27.6269 41.7314 27.6645H41.2436C41.1499 27.6625 41.0566 27.6783 40.9693 27.711C40.8821 27.7437 40.8026 27.7925 40.7355 27.8547C40.6685 27.9169 40.6152 27.9912 40.5788 28.0732C40.5424 28.1552 40.5237 28.2432 40.5237 28.3322C40.5237 28.4211 40.5424 28.5091 40.5788 28.5911C40.6152 28.6731 40.6685 28.7474 40.7355 28.8096C40.8026 28.8718 40.8821 28.9206 40.9693 28.9533C41.0566 28.986 41.1499 29.0018 41.2436 28.9998H58.5303C58.6241 29.0018 58.7173 28.986 58.8046 28.9533C58.8918 28.9206 58.9713 28.8718 59.0384 28.8096C59.1055 28.7474 59.1587 28.6731 59.1951 28.5911C59.2315 28.5091 59.2502 28.4211 59.2502 28.3322C59.2502 28.2432 59.2315 28.1552 59.1951 28.0732C59.1587 27.9912 59.1055 27.9169 59.0384 27.8547C58.9713 27.7925 58.8918 27.7437 58.8046 27.711C58.7173 27.6783 58.6241 27.6625 58.5303 27.6645L58.5241 27.6586Z" fill="#595653"/>
<path d="M78.774 27.6586H78.2866C78.2866 27.6534 78.2842 27.6483 78.2832 27.6434L78.2699 27.5838C78.2613 27.5446 78.2521 27.5057 78.2425 27.4671C78.2384 27.449 78.234 27.4308 78.2295 27.4127C78.2169 27.3618 78.2036 27.3109 78.1899 27.2601L78.1858 27.2455C78.1707 27.1904 78.155 27.1355 78.1386 27.0809L78.1222 27.0281C78.1109 26.9905 78.099 26.9532 78.088 26.9159C78.0815 26.8955 78.0747 26.8754 78.0682 26.8553C78.0562 26.8194 78.0439 26.7834 78.0313 26.7478C78.0248 26.729 78.018 26.7098 78.0115 26.6914C77.9955 26.6467 77.9791 26.6023 77.9622 26.5582C77.9585 26.5488 77.9554 26.5397 77.9517 26.5303C77.9318 26.4785 77.911 26.427 77.8898 26.3754C77.8823 26.3566 77.8744 26.3382 77.8665 26.3197C77.8522 26.2873 77.8378 26.2517 77.8231 26.218L77.7955 26.1554C77.7811 26.123 77.7664 26.0906 77.7514 26.0582C77.7421 26.0381 77.7326 26.0177 77.723 25.9976C77.7056 25.9603 77.6888 25.9234 77.6693 25.8868C77.6622 25.8728 77.6557 25.8586 77.6485 25.8443C77.6242 25.7961 77.5993 25.7471 77.574 25.7005L77.5398 25.6399L77.4916 25.552L77.454 25.4872C77.4383 25.46 77.4226 25.4328 77.4065 25.4056C77.3938 25.3835 77.3809 25.3615 77.3679 25.3408C77.3501 25.3113 77.3337 25.2824 77.3142 25.2533L77.265 25.1742C77.2417 25.1379 77.2185 25.1013 77.1946 25.0653C77.1795 25.0427 77.1645 25.0203 77.1491 24.9979C77.1337 24.9756 77.117 24.95 77.1006 24.9263C77.0842 24.9027 77.0664 24.879 77.0514 24.8557C77.0363 24.8324 77.0199 24.8113 77.0039 24.7909C76.9878 24.7705 76.9697 24.7432 76.9522 24.7196L76.9041 24.6548C76.8699 24.6117 76.8384 24.5686 76.8049 24.5252L76.7581 24.4659C76.7383 24.4409 76.7178 24.4163 76.6976 24.3917L76.6525 24.3372C76.6316 24.3123 76.6104 24.2876 76.5893 24.2627L76.5448 24.2115L76.4785 24.1363L76.4392 24.0929C76.3575 24.0031 76.2738 23.9147 76.188 23.8285L76.1504 23.7906L76.0718 23.7138L76.0332 23.6768C76.0058 23.6506 75.9785 23.6247 75.9508 23.5991L75.9224 23.5731C75.8257 23.484 75.7262 23.3972 75.6251 23.3139L75.5974 23.2909C75.5661 23.265 75.5347 23.2394 75.503 23.2141L75.4716 23.1888C75.4374 23.1629 75.4063 23.1373 75.3731 23.1117L75.3564 23.0991C75.2446 23.0135 75.1301 22.9302 75.0146 22.8502L74.9985 22.8389C74.962 22.8139 74.9254 22.7893 74.8885 22.765L74.8642 22.7491C74.8266 22.7241 74.7887 22.6998 74.7507 22.6755L74.7442 22.6717C74.6185 22.5919 74.4903 22.5156 74.3597 22.4426L74.3546 22.4393C74.3132 22.4163 74.2719 22.3939 74.2305 22.3716L74.2124 22.3619C73.9923 22.2441 73.7663 22.1361 73.5343 22.0378L73.5199 22.0317C73.4588 22.0058 73.3972 21.9808 73.335 21.9562H74.5583C74.7576 21.9562 74.9192 21.7387 74.9192 21.4701C74.9192 21.2015 74.7576 20.9841 74.5583 20.9841H74.194C74.2165 20.9296 74.2415 20.868 74.2685 20.7987C74.613 20.5952 75.2193 20.1616 75.8209 19.3651L75.8257 19.359C75.8713 19.2994 75.916 19.2377 75.96 19.174L75.9689 19.1613C76.0126 19.0988 76.0564 19.0343 76.0995 18.9669L76.1111 18.9491C76.1316 18.9167 76.1521 18.8843 76.1726 18.8519C76.1726 18.8519 76.1726 18.8493 76.175 18.8477C76.1962 18.8153 76.217 18.7796 76.2379 18.7449L76.2512 18.7226C76.269 18.6928 76.2871 18.6623 76.3045 18.6315C76.308 18.626 76.3114 18.6205 76.3145 18.6147C76.3346 18.5797 76.3548 18.544 76.3746 18.5081L76.3883 18.4831C76.4047 18.4533 76.4208 18.4232 76.4368 18.3927C76.4416 18.3843 76.4464 18.3755 76.4508 18.3668C76.47 18.3302 76.4891 18.2932 76.5083 18.2556L76.5216 18.2294C76.5366 18.1989 76.552 18.1678 76.567 18.1367L76.5834 18.1043C76.6019 18.0661 76.62 18.0272 76.6381 17.988L76.6494 17.963C76.6645 17.9306 76.6791 17.8982 76.6938 17.8658L76.7113 17.8269C76.7284 17.7877 76.7455 17.7482 76.7619 17.7083C76.7649 17.7012 76.768 17.6937 76.7708 17.6866C76.7861 17.65 76.8012 17.6127 76.8162 17.5751L76.8333 17.5324C76.8473 17.4967 76.8613 17.4608 76.875 17.4248L76.8853 17.3976C76.9013 17.3548 76.917 17.3111 76.9328 17.268L76.9492 17.2219C76.9615 17.1876 76.9734 17.1526 76.9854 17.1176C76.9898 17.1046 76.9943 17.0917 76.9984 17.0787C77.0134 17.034 77.0285 16.9883 77.0432 16.9426C77.0479 16.9267 77.0531 16.9102 77.0579 16.8953L77.092 16.7887C77.0965 16.7732 77.1013 16.7563 77.1057 16.7424C77.1197 16.6954 77.1337 16.6474 77.1471 16.5991C77.1515 16.5839 77.1556 16.5684 77.1597 16.5528C77.17 16.5155 77.1802 16.4783 77.1901 16.4404C77.1946 16.4232 77.199 16.406 77.2038 16.3888C77.2165 16.3389 77.2291 16.2887 77.2414 16.2378L77.2517 16.1954C77.2612 16.1549 77.2708 16.114 77.28 16.0729L77.2923 16.0178C77.3039 15.965 77.3156 15.9122 77.3265 15.8584C77.3289 15.848 77.331 15.8373 77.333 15.826C77.3426 15.7796 77.3518 15.7327 77.3607 15.6857C77.3644 15.6666 77.3679 15.6474 77.3716 15.6283C77.3805 15.58 77.3891 15.5311 77.3976 15.4828C77.3993 15.4725 77.4014 15.4624 77.4031 15.4524C77.4126 15.3953 77.422 15.3379 77.4311 15.28C77.4342 15.2605 77.4373 15.2411 77.44 15.2213C77.4472 15.1743 77.454 15.127 77.4608 15.0791L77.467 15.035C77.4752 14.9754 77.4831 14.9154 77.4906 14.8545C77.493 14.8354 77.495 14.8163 77.4974 14.7968C77.5033 14.7484 77.5088 14.6998 77.5138 14.651C77.5159 14.6335 77.5179 14.6163 77.5196 14.5988C77.5262 14.5362 77.5324 14.473 77.5381 14.4093C77.5381 14.3915 77.5412 14.3736 77.5425 14.3555C77.547 14.3043 77.5514 14.2528 77.5552 14.2009C77.5552 14.1818 77.5582 14.1627 77.5596 14.1436C77.5644 14.0775 77.5688 14.0109 77.5729 13.944C77.5729 13.9287 77.5729 13.9115 77.5753 13.8979C77.5784 13.8422 77.5815 13.7861 77.5839 13.7298C77.5839 13.7093 77.5839 13.6889 77.5866 13.6685C77.5893 13.5989 77.5921 13.5289 77.5941 13.4579C77.5941 13.4482 77.5941 13.4381 77.5941 13.4281C77.596 13.365 77.5973 13.3013 77.5982 13.2369C77.5982 13.2158 77.5982 13.1948 77.5982 13.1737C77.5982 13.1046 77.5982 13.035 77.5982 12.965V12.9488C77.5982 12.8743 77.5982 12.7988 77.5982 12.722V12.6572C77.5982 12.5924 77.5955 12.5243 77.5938 12.4569V12.4203C77.5914 12.3425 77.5883 12.2638 77.5853 12.1847C77.5853 12.1643 77.5832 12.1436 77.5825 12.1232C77.5795 12.0566 77.5761 11.9897 77.5723 11.9223C77.5723 11.9057 77.5723 11.8899 77.5695 11.872C77.5647 11.791 77.5595 11.7094 77.5538 11.6271L77.5497 11.5697C77.5446 11.501 77.5394 11.432 77.5336 11.3623C77.5336 11.3422 77.5306 11.3221 77.5289 11.3021C77.5217 11.2178 77.5138 11.1326 77.5056 11.047C77.5056 11.0308 77.5022 11.0146 77.5008 10.9981C77.4936 10.9252 77.4858 10.8516 77.4779 10.7774C77.4755 10.7551 77.4731 10.733 77.4704 10.7107C77.4608 10.6225 77.4506 10.5341 77.4396 10.4443C77.4396 10.4333 77.4366 10.4223 77.4352 10.4119C77.4254 10.3316 77.415 10.2508 77.4041 10.1695C77.4007 10.1456 77.3976 10.1216 77.3942 10.0976C77.3814 10.0056 77.3683 9.91278 77.3549 9.81924C75.9877 0.592523 66.2992 2.08991 66.2992 2.08991L66.6095 4.07239L60.7501 9.94076L61.0061 12.2068L63.2257 13.5029C63.3247 13.2645 63.4517 13.0374 63.6045 12.826C65.0366 11.2599 67.815 10.0305 68.6104 9.7755C68.7697 9.72463 68.8602 9.69903 68.8602 9.69903C65.0557 14.3672 65.4884 19.7151 65.658 20.9899C65.4816 21.0223 65.3452 21.2242 65.3452 21.4704C65.3452 21.7387 65.5069 21.9565 65.7062 21.9565H66.9294C64.895 22.7639 63.28 24.3015 62.4372 26.2338C62.4362 26.2365 62.4351 26.2391 62.4338 26.2416C62.3716 26.385 62.3137 26.5305 62.2602 26.6781C62.2603 26.6796 62.2603 26.6811 62.2602 26.6826C62.2458 26.7228 62.2318 26.763 62.2181 26.8035C62.213 26.8181 62.2079 26.8327 62.2031 26.8476C62.1908 26.8839 62.1794 26.9205 62.1689 26.9574C62.1628 26.9762 62.157 26.9953 62.1511 27.0141C62.1402 27.0488 62.1296 27.0838 62.1194 27.1188L62.1009 27.1836C62.0913 27.216 62.0818 27.2507 62.0729 27.2844C62.0664 27.3083 62.0602 27.332 62.0541 27.356C62.0459 27.3884 62.0373 27.4208 62.0295 27.4532C62.0216 27.4856 62.0141 27.518 62.0066 27.5523C61.999 27.5867 61.9895 27.6269 61.9813 27.6645H61.4935C61.3997 27.6625 61.3065 27.6783 61.2192 27.711C61.132 27.7437 61.0525 27.7925 60.9854 27.8547C60.9184 27.9169 60.8651 27.9912 60.8287 28.0732C60.7923 28.1552 60.7736 28.2432 60.7736 28.3322C60.7736 28.4211 60.7923 28.5091 60.8287 28.5911C60.8651 28.6731 60.9184 28.7474 60.9854 28.8096C61.0525 28.8718 61.132 28.9206 61.2192 28.9533C61.3065 28.986 61.3997 29.0018 61.4935 28.9998H78.7802C78.874 29.0018 78.9672 28.986 79.0545 28.9533C79.1417 28.9206 79.2212 28.8718 79.2883 28.8096C79.3553 28.7474 79.4086 28.6731 79.445 28.5911C79.4814 28.5091 79.5001 28.4211 79.5001 28.3322C79.5001 28.2432 79.4814 28.1552 79.445 28.0732C79.4086 27.9912 79.3553 27.9169 79.2883 27.8547C79.2212 27.7925 79.1417 27.7437 79.0545 27.711C78.9672 27.6783 78.874 27.6625 78.7802 27.6645L78.774 27.6586Z" fill="#595653"/>
<path d="M86.0092 13V2.90771H88.6044V6.90137H89.3253L92.4106 2.90771H95.2365L91.3437 7.62225L95.3806 13H92.353L89.3253 8.71798H88.6044V13H86.0092ZM96.8224 13.1874C96.7455 13.1874 96.635 13.1826 96.4908 13.173C96.3562 13.173 96.2505 13.1634 96.1736 13.1442V10.8662C96.2024 10.8758 96.2745 10.8806 96.3899 10.8806C96.5821 10.8806 96.7455 10.8566 96.8801 10.8085C97.0242 10.7509 97.1444 10.6355 97.2405 10.4625C97.3366 10.2799 97.4183 10.0156 97.4856 9.66954C97.5625 9.32352 97.6154 8.86216 97.6442 8.28546C97.673 7.69914 97.6875 6.96385 97.6875 6.07957V2.90771H105.329V13H102.719V5.02709H100.11V6.36792C100.11 7.56939 100.062 8.57862 99.9654 9.39561C99.8693 10.203 99.7251 10.8566 99.5329 11.3564C99.3503 11.8562 99.1244 12.2407 98.8553 12.5098C98.5861 12.7693 98.2786 12.9471 97.9326 13.0433C97.5961 13.1394 97.2261 13.1874 96.8224 13.1874ZM109.372 13.1874C109.267 13.1874 109.161 13.1826 109.055 13.173C108.959 13.173 108.873 13.1586 108.796 13.1298V10.9815C108.873 10.9912 108.95 11.0008 109.026 11.0104C109.103 11.02 109.195 11.0248 109.3 11.0248C109.579 11.0248 109.795 11.0056 109.949 10.9671C110.103 10.9191 110.223 10.8422 110.31 10.7364C110.396 10.6211 110.468 10.4673 110.526 10.2751L106.475 2.90771H109.113L111.795 8.02594L113.9 2.90771H116.437L113.063 10.5346C112.842 11.0344 112.621 11.4525 112.4 11.7889C112.189 12.1253 111.944 12.3993 111.665 12.6107C111.396 12.8126 111.074 12.9567 110.699 13.0433C110.334 13.1394 109.891 13.1874 109.372 13.1874ZM117.59 13V2.90771H125.015V5.04151H120.185V6.54093H121.843C123.246 6.54093 124.28 6.82928 124.943 7.40599C125.616 7.97308 125.952 8.73721 125.952 9.69838C125.952 10.7364 125.616 11.5486 124.943 12.1349C124.28 12.7116 123.246 13 121.843 13H117.59ZM120.185 10.8662H121.555C122.179 10.8662 122.622 10.7653 122.881 10.5634C123.141 10.352 123.27 10.0636 123.27 9.69838C123.27 9.33313 123.141 9.04959 122.881 8.84774C122.622 8.63629 122.179 8.53056 121.555 8.53056H120.185V10.8662ZM91.2572 29V24.9775C91.0073 25.1409 90.6757 25.2899 90.2624 25.4244C89.8587 25.5494 89.3781 25.6119 88.8207 25.6119C87.773 25.6119 86.98 25.3524 86.4418 24.8333C85.9131 24.3047 85.6488 23.4589 85.6488 22.2958V18.9077H88.244V21.8633C88.244 22.4304 88.3641 22.8389 88.6044 23.0888C88.8447 23.3291 89.1811 23.4492 89.6136 23.4492C90.0077 23.4492 90.3393 23.406 90.6084 23.3195C90.8776 23.2234 91.0938 23.1224 91.2572 23.0167V18.9077H93.8668V29H91.2572ZM95.8791 29V18.9077H103.232V20.8973H98.4742V22.8725H102.799V24.7468H98.4742V27.0104H103.232V29H95.8791ZM107.551 29V21.0415H104.451V18.9077H113.245V21.0415H110.146V29H107.551ZM114.549 29V18.9077H117.144V22.2526H118.369C119.773 22.2526 120.806 22.5554 121.469 23.1609C122.142 23.7664 122.478 24.5882 122.478 25.6263C122.478 26.6644 122.142 27.4862 121.469 28.0917C120.806 28.6972 119.773 29 118.369 29H114.549ZM117.144 26.8662H118.081C118.687 26.8662 119.124 26.7509 119.393 26.5202C119.662 26.2895 119.797 25.9915 119.797 25.6263C119.797 25.261 119.662 24.9631 119.393 24.7324C119.124 24.5017 118.687 24.3864 118.081 24.3864H117.144V26.8662ZM123.199 29V18.9077H125.794V29H123.199ZM127.812 29V18.9077H131.921C132.863 18.9077 133.636 19.0471 134.242 19.3258C134.847 19.5949 135.294 19.989 135.583 20.5081C135.881 21.0175 136.03 21.6326 136.03 22.3535C136.03 23.0648 135.881 23.6799 135.583 24.199C135.294 24.718 134.847 25.1169 134.242 25.3956C133.636 25.6647 132.863 25.7993 131.921 25.7993H130.407V29H127.812ZM130.407 23.6655H131.632C132.296 23.6655 132.762 23.555 133.031 23.3339C133.3 23.1128 133.435 22.786 133.435 22.3535C133.435 21.921 133.3 21.5942 133.031 21.3731C132.762 21.152 132.296 21.0415 131.632 21.0415H130.407V23.6655ZM137.47 29V18.9077H144.823V20.8973H140.065V22.8725H144.391V24.7468H140.065V27.0104H144.823V29H137.47ZM145.829 29L149.116 23.7376L145.973 18.9077H148.842L150.818 21.9642L152.822 18.9077H155.633L152.504 23.7088L155.777 29H152.879L150.774 25.4677L148.669 29H145.829ZM160.747 29V18.9077H163.343V22.9014H164.063L167.149 18.9077H169.975L166.082 23.6223L170.119 29H167.091L164.063 24.718H163.343V29H160.747ZM175.75 29.1874C175.096 29.1874 174.472 29.0913 173.876 28.8991C173.28 28.7068 172.756 28.4041 172.304 27.9908C171.853 27.5775 171.497 27.044 171.237 26.3904C170.978 25.7272 170.848 24.9391 170.848 24.0259V23.7376C170.848 22.8533 170.978 22.094 171.237 21.4596C171.497 20.8252 171.853 20.3062 172.304 19.9025C172.756 19.4988 173.28 19.2009 173.876 19.0086C174.472 18.8164 175.096 18.7203 175.75 18.7203C176.423 18.7203 177.052 18.8164 177.639 19.0086C178.225 19.2009 178.744 19.4988 179.196 19.9025C179.648 20.3062 180.003 20.8252 180.263 21.4596C180.522 22.094 180.652 22.8533 180.652 23.7376V24.0259C180.652 24.9391 180.522 25.7272 180.263 26.3904C180.003 27.044 179.648 27.5775 179.196 27.9908C178.744 28.4041 178.225 28.7068 177.639 28.8991C177.052 29.0913 176.423 29.1874 175.75 29.1874ZM175.736 27.0248C176.13 27.0248 176.495 26.9383 176.831 26.7653C177.168 26.5827 177.437 26.2799 177.639 25.857C177.85 25.4244 177.956 24.8141 177.956 24.0259V23.7376C177.956 22.9879 177.85 22.4064 177.639 21.9931C177.437 21.5798 177.168 21.2914 176.831 21.128C176.495 20.9646 176.13 20.8829 175.736 20.8829C175.361 20.8829 175.005 20.9646 174.669 21.128C174.332 21.2914 174.058 21.5798 173.847 21.9931C173.636 22.4064 173.53 22.9879 173.53 23.7376V24.0259C173.53 24.8141 173.636 25.4244 173.847 25.857C174.058 26.2799 174.332 26.5827 174.669 26.7653C175.005 26.9383 175.361 27.0248 175.736 27.0248ZM182.303 29V18.9077H184.898V22.7428H188.647V18.9077H191.242V29H188.647V24.8766H184.898V29H182.303ZM193.257 29V18.9077H200.61V20.8973H195.852V22.8725H200.178V24.7468H195.852V27.0104H200.61V29H193.257ZM202.268 29V18.9077H204.863V24.9631L208.828 18.9077H211.207V29H208.612V22.9446L204.647 29H202.268ZM206.738 18.3454C206.065 18.3454 205.512 18.2541 205.08 18.0715C204.657 17.8793 204.344 17.6005 204.143 17.2353C203.95 16.87 203.854 16.4135 203.854 15.8656H205.959C205.959 16.2693 206.017 16.5432 206.132 16.6874C206.257 16.822 206.459 16.8893 206.738 16.8893C207.016 16.8893 207.213 16.822 207.329 16.6874C207.454 16.5432 207.516 16.2693 207.516 15.8656H209.621C209.621 16.4135 209.52 16.87 209.318 17.2353C209.126 17.6005 208.819 17.8793 208.396 18.0715C207.973 18.2541 207.42 18.3454 206.738 18.3454Z" fill="#595653"/>
</svg>
